#!OML:ASF H:\Terrain\Patient Classification 1\Terrain2\Thursday\justin.ASF
:FULLY-SPECIFIED
:DEGREES
3178
root -0.395839 20.2239 15.3035 1263.26 0.222764 -176.16
lowerback 12.2766 1.84053 0.394316
upperback 3.33417 2.96038 1.9069
thorax -3.46489 1.63135 1.3087
lowerneck -15.265 -1.41685 -8.78342
upperneck 30.0516 -3.84072 7.21819
head 12.8267 -2.44858 3.57592
rclavicle -8.29926e-015 -2.28602e-014
rhumerus -30.5123 -12.5085 -77.352
rradius 29.4543
rwrist -9.59111
rhand -22.4073 14.7766
rfingers 7.12502
rthumb 4.01541 -15.1653
lclavicle -8.29926e-015 -2.28602e-014
lhumerus -32.3294 1.90803 84.5843
lradius 33.7852
lwrist 3.99109
lhand -19.5374 22.5764
lfingers 7.12502
lthumb 6.7864 52.4476
rfemur -22.8269 -11.6758 20.8075
rtibia 79.7251
rfoot 4.28227 -9.65984
rtoes 17.4993
lfemur -23.0977 -5.31114 -18.7527
ltibia 42.9655
lfoot -18.2104 -6.96406
ltoes 0.548268
3179
root -0.413545 20.283 15.2098 1262.82 0.441204 -176.598
lowerback 12.4064 1.79903 -0.155204
upperback 3.39307 2.84057 1.89159
thorax -3.4955 1.57597 1.61656
lowerneck -15.2473 -1.27394 -8.63515
upperneck 30.3214 -3.63248 6.87311
head 12.9028 -2.40586 3.44932
rclavicle -2.78299e-015 8.15017e-015
rhumerus -30.6221 -11.8993 -77.3977
rradius 30.1089
rwrist -11.1214
rhand -22.5988 13.6406
rfingers 7.12502
rthumb 3.83049 -16.3047
lclavicle -2.78299e-015 8.15017e-015
lhumerus -32.1981 2.45415 84.2188
lradius 33.7917
lwrist 3.56863
lhand -20.0867 21.9794
lfingers 7.12502
lthumb 6.2561 51.867
rfemur -24.401 -11.8438 20.3117
rtibia 82.683
rfoot 2.63495 -9.11439
rtoes 16.4387
lfemur -21.3824 -5.49114 -19.3801
ltibia 41.3877
lfoot -17.7771 -6.76953
ltoes 0.888711
3180
root -0.423641 20.3523 15.1131 1262.5 0.412948 -176.907
lowerback 12.4891 1.67468 -0.643492
upperback 3.39681 2.61667 1.9382
thorax -3.55172 1.46754 1.97223
lowerneck -15.4787 -1.15351 -8.55028
upperneck 30.8056 -3.44144 6.51943
head 13.1271 -2.38417 3.33115
rclavicle 9.88954e-015 2.18663e-015
rhumerus -30.5957 -11.4973 -77.3431
rradius 30.399
rwrist -11.9439
rhand -22.6737 13.0603
rfingers 7.12502
rthumb 3.7582 -16.8863
lclavicle 9.88954e-015 2.18663e-015
lhumerus -32.1138 2.38804 84.3018
lradius 34.164
lwrist 4.77715
lhand -21.6287 24.6934
lfingers 7.12502
lthumb 4.76731 54.6198
rfemur -26.0588 -12.1551 20.0802
rtibia 85.4288
rfoot 0.994019 -8.59812
rtoes 15.0372
lfemur -19.8117 -5.27853 -19.7846
ltibia 39.7532
lfoot -17.2655 -7.41647
ltoes 3.65041
3181
root -0.436553 20.4302 15.0193 1262.34 0.32589 -176.7
lowerback 12.4237 1.4911 -0.378729
upperback 3.38579 2.40723 1.96249
thorax -3.50999 1.36245 1.88266
lowerneck -15.6422 -1.09417 -8.55487
upperneck 31.0537 -3.4229 6.6052
head 13.266 -2.38126 3.37223
rclavicle 2.85753e-014 -7.35503e-015
rhumerus -30.5344 -11.787 -77.3222
rradius 30.522
rwrist -11.9632
rhand -22.6809 12.953
rfingers 7.12502
rthumb 3.75125 -16.9937
lclavicle 2.85753e-014 -7.35503e-015
lhumerus -31.9404 2.29628 84.2326
lradius 34.4776
lwrist 6.4383
lhand -22.0484 24.5795
lfingers 7.12502
lthumb 4.36201 54.5146
rfemur -27.8388 -12.4748 20.4838
rtibia 87.9396
rfoot -0.525196 -7.94185
rtoes 14.2741
lfemur -18.3735 -5.02836 -19.6222
ltibia 38.0501
lfoot -16.8398 -7.91126
ltoes 5.22724
3182
root -0.457283 20.4952 14.9263 1262.13 0.104895 -176.662
lowerback 12.5461 1.27805 -0.172452
upperback 3.22868 2.13829 1.93171
thorax -3.72302 1.22331 1.77036
lowerneck -15.2925 -1.00803 -8.48669
upperneck 31.0041 -3.40824 6.67276
head 13.1662 -2.37827 3.38533
rclavicle 6.11263e-015 5.96354e-016
rhumerus -30.8486 -11.9346 -77.2858
rradius 30.8463
rwrist -12.2632
rhand -22.8742 12.8662
rfingers 7.12502
rthumb 3.56459 -17.0837
lclavicle 6.11263e-015 5.96354e-016
lhumerus -32.0372 2.40284 83.9587
lradius 34.7526
lwrist 7.14725
lhand -21.9406 23.2315
lfingers 7.12502
lthumb 4.46613 53.1644
rfemur -29.5225 -12.8572 20.636
rtibia 90.254
rfoot -1.97114 -7.10746
rtoes 14.2241
lfemur -16.8813 -4.96993 -19.6975
ltibia 36.2824
lfoot -16.3634 -8.28751
ltoes 6.256
3183
root -0.477821 20.5489 14.8354 1261.85 -0.282027 -177.132
lowerback 12.6973 1.49099 -0.390076
upperback 3.15595 1.64597 1.84125
thorax -3.86917 0.664049 1.89371
lowerneck -15.1715 -0.86417 -8.37019
upperneck 31.1427 -3.23452 6.49531
head 13.1753 -2.33163 3.32154
rclavicle -1.98785e-015 -1.8487e-014
rhumerus -30.9755 -11.8443 -77.266
rradius 31.141
rwrist -12.7615
rhand -22.8498 12.5964
rfingers 7.12502
rthumb 3.58815 -17.3532
lclavicle -1.98785e-015 -1.8487e-014
lhumerus -31.9282 3.39723 83.1472
lradius 34.4836
lwrist 5.19225
lhand -21.0046 22.2225
lfingers 7.12502
lthumb 5.36989 52.1345
rfemur -31.1304 -13.4576 20.1763
rtibia 92.4175
rfoot -3.49312 -6.22473
rtoes 14.1558
lfemur -15.311 -5.02776 -20.3157
ltibia 34.4493
lfoot -15.6702 -8.74425
ltoes 7.29806
3184
root -0.496336 20.6012 14.7438 1261.67 -0.306728 -177.849
lowerback 12.548 1.40187 -0.973409
upperback 3.2042 1.44942 1.57551
thorax -3.73814 0.573528 1.97849
lowerneck -15.3678 -0.742374 -8.06941
upperneck 31.4943 -3.13886 6.30499
head 13.3488 -2.29911 3.21243
rclavicle -6.63444e-015 -9.54166e-015
rhumerus -30.9708 -12.1174 -77.3279
rradius 31.3725
rwrist -13.0694
rhand -22.7887 12.5028
rfingers 7.12502
rthumb 3.64712 -17.4457
lclavicle -6.63444e-015 -9.54166e-015
lhumerus -31.5125 3.51832 82.7837
lradius 34.411
lwrist 5.67298
lhand -22.6239 24.3213
lfingers 7.12502
lthumb 3.80626 54.2671
rfemur -32.9346 -13.9358 19.4461
rtibia 94.4676
rfoot -5.20023 -5.38758
rtoes 13.3702
lfemur -13.812 -4.99658 -21.2125
ltibia 32.6094
lfoot -15.093 -8.7563
ltoes 6.61951
3185
root -0.510254 20.6567 14.6506 1261.62 -0.0544963 -178.191
lowerback 12.4145 1.38786 -1.38108
upperback 3.05664 1.3999 1.47483
thorax -3.82495 0.563575 2.11165
lowerneck -15.6704 -0.642423 -7.83926
upperneck 32.0585 -3.13361 6.21527
head 13.6509 -2.31644 3.14353
rclavicle -6.13748e-015 -2.09718e-014
rhumerus -31.2147 -12.3603 -77.2271
rradius 31.473
rwrist -13.1257
rhand -22.7899 13.0609
rfingers 7.12502
rthumb 3.64603 -16.8877
lclavicle -6.13748e-015 -2.09718e-014
lhumerus -31.3894 3.8249 82.4879
lradius 34.3747
lwrist 5.96174
lhand -23.2237 25.4305
lfingers 7.12502
lthumb 3.22706 55.3859
rfemur -34.8982 -14.0559 19.2895
rtibia 96.3101
rfoot -6.79441 -4.71761
rtoes 11.7875
lfemur -12.4886 -4.36635 -21.6654
ltibia 30.8086
lfoot -14.6538 -9.00912
ltoes 6.09377
3186
root -0.52171 20.6967 14.5621 1261.56 0.0286031 -178.281
lowerback 12.3833 0.85711 -1.71173
upperback 2.86551 1.30527 1.56705
thorax -4.00554 0.798899 2.3907
lowerneck -15.7272 -0.521488 -8.07218
upperneck 32.4555 -3.00772 6.26962
head 13.8277 -2.32054 3.23034
rclavicle -2.03754e-015 5.96354e-015
rhumerus -31.3281 -12.1547 -76.9917
rradius 31.2765
rwrist -13.2373
rhand -22.6925 13.8205
rfingers 7.12502
rthumb 3.74009 -16.1264
lclavicle -2.03754e-015 5.96354e-015
lhumerus -31.5433 4.28023 82.3662
lradius 34.5269
lwrist 6.30333
lhand -22.6883 24.3344
lfingers 7.12502
lthumb 3.74407 54.2813
rfemur -36.8828 -14.1468 19.4934
rtibia 98.0171
rfoot -8.05265 -4.07457
rtoes 11.6594
lfemur -11.209 -3.76574 -21.807
ltibia 29.0587
lfoot -14.1268 -9.49849
ltoes 6.72507
